<?xml version="1.0" encoding="UTF-8"?>
<svg width="100px" height="38px" viewBox="0 0 100 38" version="1.1" xmlns="http://www.w3.org/2000/svg" xmlns:xlink="http://www.w3.org/1999/xlink">
    <title>Group 5 Copy</title>
    <g id="⚡-Active---VANAHEIMEX" stroke="none" stroke-width="1" fill="none" fill-rule="evenodd">
        <g id="Desktop:-Views-(don't-use-to-code)" transform="translate(-348.000000, -39.000000)" fill-rule="nonzero">
            <g id="Header" transform="translate(0.000000, -11.000000)">
                <g id="New" transform="translate(348.855000, 50.476000)">
                    <g id="Logo" transform="translate(0.000000, 0.000000)">
                        <g id="SKIP" transform="translate(0.000000, 0.000000)">
                            <g id="TestNet" transform="translate(0.000000, 0.000000)">
                                <g id="Group-5-Copy" transform="translate(0.000000, 0.000000)">
                                    <path d="M14.08237,21.5323935 L3.12089194,33.4281153 C2.74664205,33.8342624 2.77249986,34.4668992 3.17864696,34.841149 C3.46676212,35.1066368 3.88337337,35.1794214 4.24443886,35.0273498 L22.3568717,27.3988516 C22.8658547,27.1844809 23.1046851,26.5980869 22.8903143,26.0891039 C22.8410316,25.9720914 22.7699164,25.8655345 22.680769,25.7751275 L18.4247024,21.4589246 C17.261377,20.2791619 15.3619288,20.2658368 14.1821662,21.4291623 C14.148082,21.4627716 14.114807,21.4971918 14.08237,21.5323935 Z" id="Path" fill="#F3BA2F"></path>
                                    <path d="M25.7359348,1.55349544 L10.0266273,8.14024523 C9.51730152,8.35380023 9.27753196,8.93981085 9.49108696,9.44913659 C9.54041108,9.56677394 9.61178651,9.67388814 9.70136407,9.76470265 L13.7783314,13.8979681 C14.9418434,15.0775468 16.8412937,15.0905715 18.0208724,13.9270595 C18.0966275,13.8523362 18.1683535,13.7736354 18.2357461,13.6912907 L26.8964765,3.1090604 C27.2462656,2.6816659 27.1833539,2.05163414 26.7559594,1.70184508 C26.4695896,1.46747371 26.0772015,1.41040584 25.7359348,1.55349544 Z" id="Path" fill="#F3BA2F"></path>
                                    <path d="M43.7689086,26.8165 C47.9989086,26.8165 49.5289086,25.8715 49.5289086,22.339 C49.5289086,20.0665 48.7189086,18.649 46.2439086,17.7715 L43.2964086,16.759 C42.1264086,16.3765 41.6764086,16.084 41.6764086,15.004 C41.6764086,13.6765 42.2614086,13.5865 43.9264086,13.5865 C45.5689086,13.5865 47.4814086,13.609 48.7864086,13.654 L49.0114086,11.314 C47.2789086,10.819 45.4339086,10.7065 43.9039086,10.7065 C39.8989086,10.7065 38.2564086,11.449 38.2564086,15.004 C38.2564086,17.299 39.1114086,18.694 41.4739086,19.549 L44.6014086,20.6515 C45.6364086,20.989 46.0639086,21.259 46.0639086,22.3615 C46.0639086,23.6215 45.5689086,23.869 43.7689086,23.869 C42.7789086,23.869 41.5189086,23.824 38.6389086,23.7565 L38.4364086,26.2315 C40.8214086,26.749 42.7789086,26.8165 43.7689086,26.8165 Z M59.5141356,26.524 L59.5141356,21.169 C59.5141356,20.719 59.4466356,20.2015 59.3566356,19.684 L60.6841356,19.684 L64.7791356,26.524 L68.6041356,26.524 L64.5091356,19.8865 C64.1941356,19.369 63.6541356,18.829 63.2041356,18.514 L63.2041356,18.424 C63.6541356,18.0865 64.0141356,17.749 64.3291356,17.1865 L68.3341356,10.999 L64.6216356,10.999 L60.6616356,17.2315 L59.3566356,17.2315 C59.4691356,16.624 59.5141356,15.994 59.5141356,15.3865 L59.5141356,10.999 L56.0941356,10.999 L56.0941356,26.524 L59.5141356,26.524 Z M77.8468625,26.524 L77.8468625,10.999 L74.4268625,10.999 L74.4268625,26.524 L77.8468625,26.524 Z M88.5520894,26.524 L88.5520894,20.764 C89.4520894,20.8765 90.4645894,20.944 91.4770894,20.944 C95.3245894,20.944 96.6970894,19.864 96.6970894,15.859 C96.6970894,11.899 95.3245894,10.7965 91.0270894,10.7965 C88.2370894,10.7965 86.9995894,10.819 85.1320894,10.999 L85.1320894,26.524 L88.5520894,26.524 Z M90.9595894,18.3115 L88.5520894,18.3115 L88.5520894,13.429 L90.9595894,13.429 C92.7145894,13.429 93.2545894,13.924 93.2545894,15.859 C93.2545894,17.794 92.7145894,18.289 90.9595894,18.3115 Z" id="SKIP" fill="#FFFFFF"></path>
                                </g>
                            </g>
                        </g>
                    </g>
                </g>
            </g>
        </g>
    </g>
</svg>