<?xml version="1.0" encoding="UTF-8"?>
<svg width="226px" height="48px" viewBox="0 0 226 48" version="1.1" xmlns="http://www.w3.org/2000/svg" xmlns:xlink="http://www.w3.org/1999/xlink">
    <title>Exportable</title>
    <defs>
        <linearGradient x1="93.0630035%" y1="0%" x2="6.93699652%" y2="100%" id="linearGradient-1">
            <stop stop-color="#33FF99" offset="0%"></stop>
            <stop stop-color="#00CCFF" offset="100%"></stop>
        </linearGradient>
    </defs>
    <g id="⚡-Active---VANAHEIMEX" stroke="none" stroke-width="1" fill="none" fill-rule="evenodd">
        <g id="Desktop:-Components" transform="translate(-41.000000, -35.000000)" fill-rule="nonzero">
            <g id="Header" transform="translate(-1.000000, -11.000000)">
                <g id="Logo" transform="translate(46.000000, 46.000000)">
                    <g id="Mainnet" transform="translate(0.000000, 0.000000)">
                        <g id="Exportable" transform="translate(0.000000, 0.000000)">
                            <path d="M54.9875,32 C55.3925,32 55.73,31.73 55.8425,31.37 L60.4325,16.475 L58.115,16.475 L54.6275,28.5575 C54.47,29.12 54.3125,29.705 54.2,30.2675 L53.5925,30.2675 C53.4575,29.705 53.3225,29.12 53.165,28.5575 L49.655,16.475 L47.3375,16.475 L51.9275,31.37 C52.04,31.73 52.3775,32 52.7825,32 L54.9875,32 Z M66.2025,32 L67.6425,27.32 L73.83,27.32 L75.27,32 L77.5875,32 L72.705,17.0825 C72.615,16.7 72.2775,16.475 71.895,16.475 L69.6,16.475 C69.195,16.475 68.88,16.7 68.7675,17.0825 L63.9075,32 L66.2025,32 Z M73.2225,25.3625 L68.25,25.3625 L70.0725,19.4675 L70.4325,18.2075 L71.04,18.2075 C71.1525,18.6125 71.31,19.0625 71.4225,19.4675 L73.2225,25.3625 Z M85.63,32 L85.63,20.7275 C85.63,20.03 85.6075,19.2875 85.5175,18.5675 L85.8325,18.5675 C86.0125,19.22 86.485,20.1425 86.755,20.7275 L91.5925,31.3025 C91.795,31.775 92.065,32 92.56,32 L94.6975,32 C95.2375,32 95.53,31.7075 95.53,31.1225 L95.53,16.475 L93.3025,16.475 L93.3025,27.3875 C93.3025,28.1975 93.3475,28.985 93.415,29.795 L93.0775,29.795 C92.74,29.0075 92.29,28.1075 91.9975,27.4775 L87.295,17.1725 C87.07,16.7 86.8,16.475 86.305,16.475 L84.235,16.475 C83.695,16.475 83.38,16.7675 83.38,17.3525 L83.38,32 L85.63,32 Z M103.6175,32 L105.0575,27.32 L111.245,27.32 L112.685,32 L115.0025,32 L110.12,17.0825 C110.03,16.7 109.6925,16.475 109.31,16.475 L107.015,16.475 C106.61,16.475 106.295,16.7 106.1825,17.0825 L101.3225,32 L103.6175,32 Z M110.6375,25.3625 L105.665,25.3625 L107.4875,19.4675 L107.8475,18.2075 L108.455,18.2075 C108.5675,18.6125 108.725,19.0625 108.8375,19.4675 L110.6375,25.3625 Z M123.045,32 L123.045,24.6875 L129.84,24.6875 L129.84,32 L132.09,32 L132.09,16.475 L129.84,16.475 L129.84,22.7525 L123.045,22.7525 L123.045,16.475 L120.795,16.475 L120.795,32 L123.045,32 Z M149.2225,31.865 L149.11,30.1325 L142.945,30.1325 C142.045,30.1325 141.7075,29.75 141.7075,28.6925 L141.7075,24.7325 L148.255,24.7325 L148.255,22.91 L141.7075,22.91 L141.7075,19.805 C141.7075,18.7475 142.045,18.365 142.945,18.365 L149.11,18.365 L149.2225,16.61 C147.175,16.43 144.79,16.43 142.5625,16.43 C140.65,16.43 139.4575,17.51 139.435,19.22 L139.435,29.255 C139.4575,30.965 140.6275,32.045 142.5625,32.045 C144.79,32.045 147.175,32.045 149.2225,31.865 Z M158.165,32 L158.165,16.475 L155.915,16.475 L155.915,32 L158.165,32 Z M167.58,32 L168.0975,18.3425 L168.525,18.3425 L171.6975,29.39 C171.8325,29.9075 172.17,30.155 172.6875,30.155 L174.645,30.155 C175.1625,30.155 175.4775,29.9075 175.6125,29.39 L178.7625,18.3425 L179.2125,18.3425 L179.7525,32 L182.0025,32 L181.3725,17.3975 C181.35,16.8125 181.035,16.475 180.45,16.475 L177.9975,16.475 C177.4575,16.475 177.165,16.745 177.0075,17.24 L174.3975,26.3075 C174.1725,27.05 174.015,27.7025 173.8575,28.4225 L173.4525,28.4225 C173.295,27.725 173.1375,27.05 172.935,26.33 L170.3025,17.24 C170.145,16.745 169.875,16.475 169.3575,16.475 L166.86,16.475 C166.275,16.475 165.96,16.8125 165.9375,17.3975 L165.3525,32 L167.58,32 Z M198.82,31.865 L198.7075,30.1325 L192.5425,30.1325 C191.6425,30.1325 191.305,29.75 191.305,28.6925 L191.305,24.7325 L197.8525,24.7325 L197.8525,22.91 L191.305,22.91 L191.305,19.805 C191.305,18.7475 191.6425,18.365 192.5425,18.365 L198.7075,18.365 L198.82,16.61 C196.7725,16.43 194.3875,16.43 192.16,16.43 C190.2475,16.43 189.055,17.51 189.0325,19.22 L189.0325,29.255 C189.055,30.965 190.225,32.045 192.16,32.045 C194.3875,32.045 196.7725,32.045 198.82,31.865 Z M206.57,32 L210.26,24.8 L210.8,24.8 L214.49,32 L216.9425,32 L212.6675,23.9675 L216.65,16.475 L214.22,16.475 L210.8225,23.09 L210.2375,23.09 L206.84,16.475 L204.41,16.475 L208.3925,23.9675 L204.1175,32 L206.57,32 Z" id="VANAHEIMEX" fill="#FFFFFF"></path>
                            <path d="M156.005,11.132 C157.094,11.132 157.732,11.044 158.436,10.824 L158.293,9.581 C157.622,9.669 157.017,9.68 156.005,9.68 C154.905,9.68 154.575,9.119 154.575,7.205 C154.575,5.291 154.905,4.73 156.005,4.73 C156.962,4.73 157.424,4.741 158.139,4.785 L158.282,3.531 C157.589,3.355 157.072,3.278 156.005,3.278 C153.662,3.278 152.815,4.312 152.815,7.205 C152.815,10.098 153.662,11.132 156.005,11.132 Z M162.536,11 L162.536,7.612 L165.22,7.612 L165.22,11 L166.892,11 L166.892,3.41 L165.22,3.41 L165.22,6.314 L162.536,6.314 L162.536,3.41 L160.864,3.41 L160.864,11 L162.536,11 Z M170.739,11 L171.289,9.009 L173.896,9.009 L174.446,11 L176.151,11 L173.962,3.85 C173.896,3.575 173.665,3.41 173.379,3.41 L171.795,3.41 C171.52,3.41 171.278,3.575 171.212,3.85 L169.023,11 L170.739,11 Z M173.533,7.711 L171.641,7.711 L172.279,5.39 L172.444,4.675 L172.741,4.675 C172.774,4.906 172.84,5.159 172.895,5.39 L173.533,7.711 Z M181.197,11.143 C183.595,11.143 184.453,10.252 184.453,7.205 C184.453,4.158 183.595,3.267 181.197,3.267 C178.799,3.267 177.952,4.158 177.952,7.205 C177.952,10.252 178.799,11.143 181.197,11.143 Z M181.197,9.79 C180.053,9.79 179.712,9.218 179.712,7.205 C179.712,5.192 180.053,4.62 181.197,4.62 C182.341,4.62 182.682,5.192 182.682,7.205 C182.682,9.218 182.341,9.79 181.197,9.79 Z M189.477,11.143 C191.545,11.143 192.293,10.681 192.293,8.954 C192.293,7.843 191.897,7.15 190.687,6.721 L189.246,6.226 C188.674,6.039 188.454,5.896 188.454,5.368 C188.454,4.719 188.74,4.675 189.554,4.675 C190.357,4.675 191.292,4.686 191.93,4.708 L192.04,3.564 C191.193,3.322 190.291,3.267 189.543,3.267 C187.585,3.267 186.782,3.63 186.782,5.368 C186.782,6.49 187.2,7.172 188.355,7.59 L189.884,8.129 C190.39,8.294 190.599,8.426 190.599,8.965 C190.599,9.581 190.357,9.702 189.477,9.702 C188.993,9.702 188.377,9.68 186.969,9.647 L186.87,10.857 C188.036,11.11 188.993,11.143 189.477,11.143 Z M196.426,11 L196.426,6.49 C196.426,6.094 196.404,5.676 196.349,5.28 L196.47,5.28 C196.558,5.654 196.778,6.127 196.932,6.457 L198.923,10.505 C199.088,10.835 199.242,11 199.594,11 L200.639,11 C201.035,11 201.233,10.791 201.233,10.395 L201.233,3.41 L199.649,3.41 L199.649,7.777 C199.649,8.206 199.682,8.624 199.715,9.053 L199.605,9.053 C199.429,8.624 199.22,8.162 199.055,7.832 L197.13,3.905 C196.965,3.575 196.811,3.41 196.459,3.41 L195.436,3.41 C195.04,3.41 194.831,3.619 194.831,4.015 L194.831,11 L196.426,11 Z M209.249,10.923 L209.172,9.691 L206.257,9.691 C205.894,9.691 205.74,9.526 205.74,9.119 L205.74,7.656 L208.765,7.656 L208.765,6.446 L205.74,6.446 L205.74,5.291 C205.74,4.895 205.894,4.73 206.257,4.73 L209.172,4.73 L209.249,3.487 C208.215,3.377 206.906,3.377 205.729,3.377 C204.717,3.377 204.068,3.971 204.057,4.906 L204.057,9.504 C204.068,10.439 204.717,11.033 205.729,11.033 C206.906,11.033 208.215,11.033 209.249,10.923 Z M215.186,11 L215.186,4.774 L217.452,4.774 L217.452,3.41 L211.237,3.41 L211.237,4.774 L213.503,4.774 L213.503,11 L215.186,11 Z" id="CHAOSNET" fill="#28F4AE"></path>
                            <path d="M55.112,45 L55.112,38.389 L57.521,38.389 L57.521,37.41 L51.614,37.41 L51.614,38.389 L54.001,38.389 L54.001,45 L55.112,45 Z M62.898,45 L62.898,41.425 L66.22,41.425 L66.22,45 L67.32,45 L67.32,37.41 L66.22,37.41 L66.22,40.479 L62.898,40.479 L62.898,37.41 L61.798,37.41 L61.798,45 L62.898,45 Z M75.018,45.143 C77.262,45.143 78.054,44.186 78.054,41.205 C78.054,38.224 77.262,37.267 75.018,37.267 C72.785,37.267 71.993,38.224 71.993,41.205 C71.993,44.186 72.785,45.143 75.018,45.143 Z M75.018,44.164 C73.599,44.164 73.148,43.449 73.148,41.205 C73.148,38.961 73.599,38.246 75.018,38.246 C76.448,38.246 76.899,38.961 76.899,41.205 C76.899,43.449 76.448,44.164 75.018,44.164 Z M83.816,45 L83.816,41.865 L85.378,41.876 C85.862,41.876 86.159,42.085 86.335,42.635 L86.984,45 L88.161,45 L87.446,42.602 C87.281,41.942 86.863,41.612 86.489,41.502 L86.489,41.447 C87.501,41.315 87.886,40.71 87.886,39.511 C87.886,37.806 87.16,37.311 85.378,37.311 C84.135,37.311 83.563,37.322 82.727,37.41 L82.727,45 L83.816,45 Z M85.356,40.93 L83.816,40.93 L83.816,38.268 C84.0946667,38.2606667 84.4222222,38.2582222 84.7856296,38.2574074 L85.356,38.257 L85.356,38.257 C86.423,38.257 86.775,38.532 86.775,39.577 C86.775,40.622 86.423,40.919 85.356,40.93 Z M95.375,45.132 C96.387,45.132 96.981,45.055 97.63,44.868 L97.52,44.032 C96.904,44.131 96.321,44.153 95.375,44.153 C93.978,44.153 93.527,43.438 93.527,41.205 C93.527,38.972 93.978,38.257 95.375,38.257 C96.266,38.257 96.706,38.279 97.366,38.345 L97.476,37.498 C96.838,37.344 96.343,37.278 95.375,37.278 C93.164,37.278 92.372,38.312 92.372,41.205 C92.372,44.098 93.164,45.132 95.375,45.132 Z M103.139,45 L103.139,41.425 L106.461,41.425 L106.461,45 L107.561,45 L107.561,37.41 L106.461,37.41 L106.461,40.479 L103.139,40.479 L103.139,37.41 L102.039,37.41 L102.039,45 L103.139,45 Z M112.806,45 L113.51,42.712 L116.535,42.712 L117.239,45 L118.372,45 L115.985,37.707 C115.941,37.52 115.776,37.41 115.589,37.41 L114.467,37.41 C114.269,37.41 114.115,37.52 114.06,37.707 L111.684,45 L112.806,45 Z M116.238,41.755 L113.807,41.755 L114.698,38.873 L114.874,38.257 L115.171,38.257 C115.226,38.455 115.303,38.675 115.358,38.873 L116.238,41.755 Z M123.595,45 L123.595,37.41 L122.495,37.41 L122.495,45 L123.595,45 Z M129.643,45 L129.643,39.489 C129.643,39.148 129.632,38.785 129.588,38.433 L129.742,38.433 C129.83,38.752 130.061,39.203 130.193,39.489 L132.558,44.659 C132.657,44.89 132.789,45 133.031,45 L134.076,45 C134.34,45 134.483,44.857 134.483,44.571 L134.483,37.41 L133.394,37.41 L133.394,42.745 C133.394,43.141 133.416,43.526 133.449,43.922 L133.284,43.922 C133.119,43.537 132.899,43.097 132.756,42.789 L130.457,37.751 C130.347,37.52 130.215,37.41 129.973,37.41 L128.961,37.41 C128.697,37.41 128.543,37.553 128.543,37.839 L128.543,45 L129.643,45 Z M147.558,45 L147.558,38.389 L149.967,38.389 L149.967,37.41 L144.06,37.41 L144.06,38.389 L146.447,38.389 L146.447,45 L147.558,45 Z M158.963,44.934 L158.908,44.087 L155.894,44.087 C155.454,44.087 155.289,43.9 155.289,43.383 L155.289,41.447 L158.49,41.447 L158.49,40.556 L155.289,40.556 L155.289,39.038 C155.289,38.521 155.454,38.334 155.894,38.334 L158.908,38.334 L158.963,37.476 C157.962,37.388 156.796,37.388 155.707,37.388 C154.772,37.388 154.189,37.916 154.178,38.752 L154.178,43.658 C154.189,44.494 154.761,45.022 155.707,45.022 C156.796,45.022 157.962,45.022 158.963,44.934 Z M164.615,45 L164.615,41.865 L166.177,41.876 C166.661,41.876 166.958,42.085 167.134,42.635 L167.783,45 L168.96,45 L168.245,42.602 C168.08,41.942 167.662,41.612 167.288,41.502 L167.288,41.447 C168.3,41.315 168.685,40.71 168.685,39.511 C168.685,37.806 167.959,37.311 166.177,37.311 C164.934,37.311 164.362,37.322 163.526,37.41 L163.526,45 L164.615,45 Z M166.155,40.93 L164.615,40.93 L164.615,38.268 C164.893667,38.2606667 165.221222,38.2582222 165.58463,38.2574074 L166.155,38.257 L166.155,38.257 C167.222,38.257 167.574,38.532 167.574,39.577 C167.574,40.622 167.222,40.919 166.155,40.93 Z M174.392,45 L174.645,38.323 L174.854,38.323 L176.405,43.724 C176.471,43.977 176.636,44.098 176.889,44.098 L177.846,44.098 C178.099,44.098 178.253,43.977 178.319,43.724 L179.859,38.323 L180.079,38.323 L180.343,45 L181.443,45 L181.135,37.861 C181.124,37.575 180.97,37.41 180.684,37.41 L179.485,37.41 C179.221,37.41 179.078,37.542 179.001,37.784 L177.725,42.217 C177.615,42.58 177.538,42.899 177.461,43.251 L177.263,43.251 C177.186,42.91 177.109,42.58 177.01,42.228 L175.723,37.784 C175.646,37.542 175.514,37.41 175.261,37.41 L174.04,37.41 C173.754,37.41 173.6,37.575 173.589,37.861 L173.303,45 L174.392,45 Z M187.337,45 L187.337,37.41 L186.237,37.41 L186.237,45 L187.337,45 Z M193.385,45 L193.385,39.489 C193.385,39.148 193.374,38.785 193.33,38.433 L193.484,38.433 C193.572,38.752 193.803,39.203 193.935,39.489 L196.3,44.659 C196.399,44.89 196.531,45 196.773,45 L197.818,45 C198.082,45 198.225,44.857 198.225,44.571 L198.225,37.41 L197.136,37.41 L197.136,42.745 C197.136,43.141 197.158,43.526 197.191,43.922 L197.026,43.922 C196.861,43.537 196.641,43.097 196.498,42.789 L194.199,37.751 C194.089,37.52 193.957,37.41 193.715,37.41 L192.703,37.41 C192.439,37.41 192.285,37.553 192.285,37.839 L192.285,45 L193.385,45 Z M203.47,45 L204.174,42.712 L207.199,42.712 L207.903,45 L209.036,45 L206.649,37.707 C206.605,37.52 206.44,37.41 206.253,37.41 L205.131,37.41 C204.933,37.41 204.779,37.52 204.724,37.707 L202.348,45 L203.47,45 Z M206.902,41.755 L204.471,41.755 L205.362,38.873 L205.538,38.257 L205.835,38.257 C205.89,38.455 205.967,38.675 206.022,38.873 L206.902,41.755 Z M214.754,45.022 C215.733,45.022 216.734,45.011 217.68,44.923 L217.625,44.076 L214.93,44.076 C214.424,44.076 214.237,43.889 214.237,43.372 L214.237,37.41 L213.137,37.41 L213.137,43.526 C213.137,44.384 213.544,45.022 214.754,45.022 Z" id="THORCHAINTERMINAL" fill="#464D5C"></path>
                            <path d="M9.01843934,13.4881011 L39.9336697,0.523966933 L21.389,23.182 L31.0690287,32.9998593 L-3.85609137,47.7091255 L18.664,23.268 L9.01843934,13.4881011 Z M20.07,24.694 L3.855,42.291 L27.572,32.302 L20.07,24.694 Z M33.296,5.476 L12.518,14.188 L19.977,21.75 L33.296,5.476 Z" id="Shape" fill="url(#linearGradient-1)"></path>
                        </g>
                    </g>
                </g>
            </g>
        </g>
    </g>
</svg>