<?xml version="1.0" encoding="UTF-8"?>
<svg width="24px" height="24px" viewBox="0 0 24 24" version="1.1" xmlns="http://www.w3.org/2000/svg" xmlns:xlink="http://www.w3.org/1999/xlink">
    <title>Group 3</title>
    <g id="⚡-Active---VANAHEIMEX" stroke="none" stroke-width="1" fill="none" fill-rule="evenodd">
        <g id="Desktop:-Views-(don't-use-to-code)" transform="translate(-414.000000, -319.000000)">
            <g id="Content" transform="translate(52.000000, -34.000000)">
                <g id="Connect-Wallet-Views" transform="translate(301.000000, 140.000000)">
                    <g id="Group" transform="translate(51.000000, 131.000000)">
                        <g id="1-copy-4" transform="translate(0.000000, 66.000000)">
                            <g id="Group-3" transform="translate(10.000000, 16.000000)">
                                <circle id="Oval" fill="#000B12" cx="12" cy="12" r="12"></circle>
                                <path d="M18.9426568,8.53134002 L10.2623987,17.2115982 C10.1859411,17.2880557 10.0621441,17.2880557 9.98586517,17.2115982 L5.05720921,12.2827635 C4.98093026,12.2066632 4.98093026,12.0828663 5.05720921,12.0064087 L6.25480651,10.8088114 C6.3312641,10.7325324 6.45506107,10.7325324 6.53134002,10.8088114 L10.1243106,14.4016033 L17.4687046,7.05720921 C17.5453409,6.98093026 17.6687806,6.98093026 17.7452381,7.05720921 L18.9426568,8.25480651 C19.0191144,8.33108546 19.0191144,8.45470379 18.9426568,8.53134002 Z" id="Path" fill="#11DDDE" fill-rule="nonzero"></path>
                            </g>
                        </g>
                    </g>
                </g>
            </g>
        </g>
    </g>
</svg>