<?xml version="1.0" encoding="UTF-8"?>
<svg width="24px" height="24px" viewBox="0 0 24 24" version="1.1" xmlns="http://www.w3.org/2000/svg" xmlns:xlink="http://www.w3.org/1999/xlink">
    <title>Artboard</title>
    <defs>
        <circle id="path-1" cx="12" cy="12" r="12"></circle>
    </defs>
    <g id="Artboard" stroke="none" stroke-width="1" fill="none" fill-rule="evenodd">
        <mask id="mask-2" fill="white">
            <use xlink:href="#path-1"></use>
        </mask>
        <use id="Oval" fill="#000B12" xlink:href="#path-1"></use>
        <g id="folder" mask="url(#mask-2)" fill="#28F4AF" fill-rule="nonzero">
            <g transform="translate(6.000000, 6.500000)" id="Shape">
                <path d="M10.5214427,1.84931197 L6.72340523,1.84931197 C6.56923374,1.84931197 6.41864818,1.78600744 6.31465624,1.67840614 L5.12958887,0.430034232 C4.8447302,0.146089622 4.45498897,-0.00222251077 4.06025558,2.51726925e-05 L1.47852759,2.51726925e-05 C0.663303046,2.51726925e-05 0,0.663330529 0,1.47853164 L0,8.67670913 C0,9.49193368 0.663303046,10.1552367 1.47852759,10.1552367 L10.5268802,10.1552367 L10.5282396,10.1552367 C11.3430188,10.1516274 12.0036031,9.48516026 11.9999852,8.67218571 L11.9999852,3.32781612 C11.9999852,2.51259158 11.3366673,1.84931197 10.5214427,1.84931197 Z M11.0956889,8.67401383 C11.0970428,8.99051304 10.8406841,9.24959053 10.5259896,9.2509499 L1.47852759,9.2509499 C1.16202837,9.2509499 0.904310262,8.99323179 0.904310262,8.67673257 L0.904310262,1.47853164 C0.904310262,1.16203242 1.16202837,0.904314308 1.47852759,0.903845559 L4.07202117,0.903845559 C4.07698991,0.903845559 4.08195865,0.903845559 4.08695082,0.903845559 C4.23795826,0.903845559 4.38446571,0.963986035 4.48302015,1.06164986 L5.66175942,2.30413897 C5.93846186,2.58988826 6.32550778,2.75357536 6.72340523,2.75357536 L10.5214427,2.75357536 C10.8379419,2.75357536 11.0956889,3.01129347 11.0956889,3.32779268 L11.0956889,8.67401383 L11.0956889,8.67401383 Z"></path>
            </g>
        </g>
    </g>
</svg>