<?xml version="1.0" encoding="UTF-8"?>
<svg width="24px" height="24px" viewBox="0 0 24 24" version="1.1" xmlns="http://www.w3.org/2000/svg" xmlns:xlink="http://www.w3.org/1999/xlink">
    <title>Artboard</title>
    <defs>
        <circle id="path-1" cx="12" cy="12" r="12"></circle>
    </defs>
    <g id="Artboard" stroke="none" stroke-width="1" fill="none" fill-rule="evenodd">
        <mask id="mask-2" fill="white">
            <use xlink:href="#path-1"></use>
        </mask>
        <use id="Oval" fill="#000B12" xlink:href="#path-1"></use>
        <g id="MetaMask" mask="url(#mask-2)">
            <g transform="translate(5.500000, 6.000000)" id="Testnet">
                <g transform="translate(-0.000000, -0.000000)">
                    <polygon id="Path" fill="#4C380A" fill-rule="nonzero" points="5.4 8 4 7.6 5 7.1"></polygon>
                    <polygon id="Path" fill="#4C380A" fill-rule="nonzero" points="7.5 8 7.9 7.1 9 7.6"></polygon>
                    <g id="Group" transform="translate(2.500000, 6.400000)" fill="#C68D1A" fill-rule="nonzero">
                        <polygon id="Path" points="1.3 4.3 1.6 2.3 1.77635684e-15 2.3"></polygon>
                        <polygon id="Path" points="6.4 2.3 6.6 4.3 8 2.3"></polygon>
                        <polygon id="Path" points="7.6 1.77635684e-15 4.8 0.1 5 1.6 5.4 0.7 6.5 1.2"></polygon>
                        <polygon id="Path" points="1.5 1.2 2.5 0.7 2.9 1.6 3.2 0.1 0.4 1.77635684e-15"></polygon>
                    </g>
                    <polygon id="Path" stroke="#161616" fill="#161616" fill-rule="nonzero" stroke-linecap="round" stroke-linejoin="round" points="7.4 9.9 7.2 9.7 5.8 9.7 5.5 9.9 5.4 11 5.5 10.9 7.4 10.9 7.6 11"></polygon>
                    <g id="Group" transform="translate(2.900000, 6.400000)" fill="#DDA21D" fill-rule="nonzero">
                        <polygon id="Path" points="0 0 1.2 2.3 1.1 1.2"></polygon>
                        <polygon id="Path" points="6.1 1.2 6 2.3 7.2 0"></polygon>
                        <polygon id="Path" points="2.8 0.1 2.5 1.6 2.9 3.3 2.9 1"></polygon>
                        <polygon id="Path" points="4.4 0.1 4.2 1 4.3 3.3 4.6 1.6"></polygon>
                    </g>
                    <g id="Group" transform="translate(-0.000000, 0.000000)" fill="#775519" fill-rule="nonzero">
                        <polygon id="Path" points="12.5 4 12.9 1.9 12.3 8.8817842e-16 7.4 3.6 9.3 5.2 12 6 12.5 5.3 12.3 5.1 12.7 4.7 12.4 4.5 12.8 4.2"></polygon>
                        <polygon id="Path" points="-8.8817842e-16 1.9 0.4 4 0.2 4.2 0.6 4.5 0.3 4.7 0.7 5.1 0.4 5.3 1 6 3.7 5.2 5.5 3.6 0.6 8.8817842e-16"></polygon>
                    </g>
                    <g id="Group" transform="translate(0.100000, 1.500000)" fill="#F3BA2F" fill-rule="nonzero">
                        <polygon id="Path" points="7.4 6.5 7.1 8.2 7.3 8.4 8.8 7.2 8.9 6.1"></polygon>
                        <polygon id="Path" points="3.9 6.1 4 7.2 5.4 8.4 5.7 8.2 5.3 6.5"></polygon>
                        <polygon id="Path" points="11.9 4.5 9.2 3.7 10 4.9 8.8 7.2 10.4 7.2 12.7 7.2"></polygon>
                        <polygon id="Path" points="3.6 3.7 0.9 4.5 0 7.2 2.4 7.2 4 7.2 2.8 4.9"></polygon>
                        <polygon id="Path" points="7.2 5 7.3 2.1 8.1 -8.8817842e-16 4.7 -8.8817842e-16 5.4 2.1 5.6 5 5.7 5.9 5.7 8.2 7.1 8.2 7.1 5.9"></polygon>
                    </g>
                    <polygon id="Path" fill="#DBD8D2" fill-rule="nonzero" points="7.5 11.5 7.6 11 7.4 10.9 5.5 10.9 5.4 11 5.4 11.5 3.8 10.7 4.4 11.2 5.5 12 7.5 12 8.6 11.2 9.1 10.7"></polygon>
                    <g id="Group" transform="translate(3.800000, 9.900000)" fill="#F4F1EA" fill-rule="nonzero">
                        <polygon id="Path" points="5.3 0.8 3.6 1.77635684e-15 3.8 1.1 3.7 1.6"></polygon>
                        <polygon id="Path" points="0 0.8 1.6 1.6 1.6 1.1 1.7 1.77635684e-15"></polygon>
                    </g>
                    <g id="Group" transform="translate(0.100000, 0.000000)" fill="#DDA21D" fill-rule="nonzero">
                        <polygon id="Path" points="12.2 8.8817842e-16 7.2 3.7 8.1 1.5"></polygon>
                        <g transform="translate(0.000000, -0.000000)" id="Path">
                            <polygon points="0.5 1.77635684e-15 5.6 3.8 4.7 1.5"></polygon>
                            <polygon points="10.4 8.7 9 10.7 11.9 11.5 12.7 8.7"></polygon>
                            <polygon points="0 8.7 0.8 11.5 3.7 10.7 2.4 8.7"></polygon>
                            <polygon points="3.6 5.2 2.8 6.4 5.6 6.5 5.5 3.4"></polygon>
                            <polygon points="9.2 5.2 7.2 3.4 7.2 6.5 10 6.4"></polygon>
                            <polygon points="3.7 10.7 5.4 9.9 4 8.7"></polygon>
                            <polygon points="7.3 9.9 9 10.7 8.8 8.7"></polygon>
                        </g>
                    </g>
                </g>
            </g>
        </g>
    </g>
</svg>