<?xml version="1.0" encoding="UTF-8"?>
<svg width="24px" height="24px" viewBox="0 0 24 24" version="1.1" xmlns="http://www.w3.org/2000/svg" xmlns:xlink="http://www.w3.org/1999/xlink">
    <title>Artboard</title>
    <defs>
        <circle id="path-1" cx="12" cy="12" r="12"></circle>
    </defs>
    <g id="Artboard" stroke="none" stroke-width="1" fill="none" fill-rule="evenodd">
        <mask id="mask-2" fill="white">
            <use xlink:href="#path-1"></use>
        </mask>
        <use id="Oval" fill="#000B12" xlink:href="#path-1"></use>
        <g id="door-key" mask="url(#mask-2)" fill="#F3BA2F" fill-rule="nonzero">
            <g transform="translate(6.000000, 6.000000)" id="Shape">
                <path d="M12,3.86844375 C12,3.34619651 11.8973109,2.84008612 11.6963338,2.36184848 C11.5012245,1.90121467 11.2224971,1.48752444 10.8674863,1.13251368 C10.5124756,0.777502914 10.0987853,0.498775455 9.63815152,0.303666233 C9.16138087,0.101222078 8.65380349,0 8.13155625,0 C7.60930901,0 7.10319863,0.102689064 6.62496098,0.303666233 C6.16434185,0.498775455 5.75063695,0.777502914 5.39562619,1.13251368 C5.04061542,1.48752444 4.76188796,1.90121467 4.56677874,2.36184848 C4.36433459,2.83861913 4.26311251,3.34619651 4.26311251,3.86844375 C4.26311251,4.5212528 4.42741501,5.16085897 4.73988316,5.73004978 L0.108606369,10.3569256 C0.00151634484,10.4640156 -0.0322243477,10.6268512 0.0337900507,10.7808848 C0.0469929304,10.8131585 0.0689977299,10.8424982 0.0939365026,10.8674223 L1.13109605,11.9045818 C1.15603482,11.9295206 1.18537456,11.9500731 1.21764826,11.964743 C1.37168186,12.0307574 1.53451737,11.9984837 1.6416074,11.889912 L2.28268056,11.2488388 L3.20541515,12.1715734 C3.23035392,12.1965122 3.25969365,12.21705 3.29195269,12.2317199 C3.44598628,12.2977343 3.60883647,12.2654752 3.71591182,12.1569035 L4.73840151,11.1344139 C4.76334028,11.1094751 4.78387809,11.0801354 4.79854796,11.0478763 C4.86456236,10.8938427 4.83228865,10.7309925 4.72373164,10.6239172 L3.81566692,9.71585246 L6.26846856,7.26158382 C6.83619239,7.57405198 7.47726555,7.73835448 8.1300746,7.73835448 C8.65232184,7.73835448 9.15843223,7.63566541 9.6366552,7.43468825 C10.097289,7.23957902 10.5109939,6.96085156 10.8660047,6.6058408 C11.2210008,6.2508447 11.4997282,5.83715447 11.6948521,5.376506 C11.8973109,4.89680137 12,4.39069099 12,3.86844375 Z M9.48706657,5.22540638 C9.12472087,5.58775208 8.6420676,5.78726226 8.13010394,5.78726226 C7.6181256,5.78726226 7.13547233,5.58775208 6.7731413,5.22540638 C6.41079561,4.86306068 6.20981844,4.38042208 6.20981844,3.86844375 C6.20981844,3.35499843 6.40932862,2.87382681 6.77167432,2.51148111 C7.13402001,2.14913541 7.61667329,1.94962523 8.12863695,1.94962523 C8.64061528,1.94962523 9.12325389,2.14913541 9.48559958,2.51148111 C9.84794528,2.87382681 10.0474871,3.35646541 10.0474871,3.86844375 C10.0503748,4.38042208 9.85086459,4.86306068 9.48706657,5.22540638 Z"></path>
            </g>
        </g>
    </g>
</svg>