<?xml version="1.0" encoding="UTF-8"?>
<svg width="24px" height="24px" viewBox="0 0 24 24" version="1.1" xmlns="http://www.w3.org/2000/svg" xmlns:xlink="http://www.w3.org/1999/xlink">
    <title>Artboard</title>
    <defs>
        <circle id="path-1" cx="12" cy="12" r="12"></circle>
    </defs>
    <g id="Artboard" stroke="none" stroke-width="1" fill="none" fill-rule="evenodd">
        <mask id="mask-2" fill="white">
            <use xlink:href="#path-1"></use>
        </mask>
        <use id="Oval" fill="#000B12" xlink:href="#path-1"></use>
        <g id="XDEFI-Brandmark-White" mask="url(#mask-2)" fill="#28F4AF" fill-rule="nonzero">
            <g transform="translate(6.000000, 6.000000)">
                <path d="M7.18015171,6.85003294 C6.2493903,7.42724666 5.00355748,7.72451173 3.74182655,7.66101822 C2.68098979,7.60906899 1.81093021,7.22810793 1.28484767,6.60183104 C0.822357525,6.04193373 0.641697313,5.30310016 0.764546257,4.45315295 C0.804485751,4.17059946 0.888358329,3.89600308 1.01313471,3.6392816 L1.03047809,3.60320574 C2.23623716,1.28286261 4.92248462,0.144399115 7.4317862,0.890255536 C9.94108777,1.63611196 11.5663331,4.05610918 11.3047341,6.65709127 C11.043135,9.25807336 8.9684089,11.3070948 6.36067699,11.5398944 L6.41848826,12.2022472 C9.34487672,11.943056 11.6743066,9.64490004 11.9688818,6.72637089 C12.2634569,3.80784175 10.44012,1.09183816 7.62436911,0.25487805 C4.80861823,-0.582082063 1.79437314,0.695987785 0.442248439,3.30016854 L0.419123932,3.34778867 C0.265264013,3.66686675 0.160971548,4.00747985 0.109833648,4.35791269 C-0.0346945213,5.39401132 0.190769423,6.31611024 0.776108511,7.02608312 C1.4163683,7.80243558 2.45841641,8.26420656 3.70858507,8.324814 C5.2304667,8.40129482 6.74367664,7.98714397 7.81752094,7.22522186 L7.18015171,6.85003294 Z" id="Path"></path>
                <path d="M8.4404623,7.5505618 C7.83859816,8.07596298 6.44095183,9.02861348 4.11968106,9.15852036 C1.51974287,9.30286135 0.43811113,8.45413636 0.426619691,8.4454759 L0.21833735,8.70528967 L0.430928981,8.44980613 L0,8.96077321 C0.0459657579,8.99974528 1.0845046,9.84269663 3.5221262,9.84269663 C3.72178996,9.84269663 3.93150873,9.84269663 4.14984608,9.82537571 C6.95519375,9.66804404 8.4979195,8.43825885 9.03370787,7.91285767 L8.4404623,7.5505618 Z" id="Path"></path>
                <path d="M9.60625475,8.23052917 C9.24882985,8.70321194 8.80943849,9.1067441 8.30934902,9.42159303 C6.54555722,10.5690814 4.30191031,10.7172381 2.72977236,10.6373497 L2.69662921,11.30696 C2.96033338,11.3200326 3.21539151,11.3258427 3.46180359,11.3258427 C7.89001616,11.3258427 9.68118708,9.29231903 10.1797753,8.56606057 L9.60337273,8.2247191" id="Path"></path>
                <circle id="Oval" cx="9.43820225" cy="5.19101124" r="1"></circle>
            </g>
        </g>
    </g>
</svg>